<svg width="120" height="21" viewBox="0 0 120 21" fill="none" xmlns="http://www.w3.org/2000/svg">
<path d="M4.39198 0H0V20.4572H4.39198V0Z" fill="white"/>
<path d="M20.4014 12.3357V20.4571H16.2174V13.0275C16.2174 11.0419 15.1259 9.90187 13.3977 9.90187C12.2412 9.90187 11.0847 10.5424 10.487 11.5415V20.4571H6.31592V6.11018H10.5V7.80107C11.3056 6.57133 12.8389 5.81555 14.4762 5.81555C18.1535 5.81555 20.4014 8.30065 20.4014 12.3357Z" fill="white"/>
<path d="M21.9082 18.9456L23.1556 16.0762C24.52 17.0754 26.3002 17.6006 28.0804 17.6006C29.3798 17.6006 30.2114 17.101 30.2114 16.4349C30.1854 14.2444 22.35 15.8841 22.298 10.5937C22.272 7.90361 24.7019 5.82843 28.1453 5.82843C30.1854 5.82843 32.2384 6.32801 33.6938 7.46808L32.5113 10.4528C31.3808 9.60731 29.5487 8.96682 27.9764 8.96682C26.9109 8.96682 26.1962 9.4664 26.1962 10.1069C26.2222 12.1821 34.1096 11.042 34.2005 16.1915C34.2005 18.856 31.8226 20.7774 28.4442 20.7774C25.9493 20.7518 23.6624 20.1626 21.9082 18.9456Z" fill="white"/>
<path d="M44.967 20.2906C44.4343 20.5596 43.6027 20.7005 42.836 20.7005C39.4316 20.7005 37.0277 18.5613 37.0277 14.8593V10.03H34.325V6.11019H37.0277V2.34412H41.1988V6.11019H44.7851V10.03H41.1988V14.6543C41.1988 15.9993 42.2383 16.8448 43.4467 16.8448C43.8626 16.8448 44.4213 16.7551 44.7462 16.6398L44.967 20.2906Z" fill="white"/>
<path d="M61.3391 6.11018V20.4571H57.155V18.7662C56.4403 19.9319 54.6991 20.7517 52.854 20.7517C49.0597 20.7517 46.0581 17.4212 46.0581 13.2708C46.0581 9.12047 49.0467 5.81555 52.854 5.81555C54.6602 5.81555 56.4403 6.63538 57.155 7.80107V6.11018H61.3391ZM57.155 15.0514V11.5415C56.5313 10.4911 55.2319 9.69691 53.7766 9.69691C51.7365 9.69691 50.1642 11.2213 50.1642 13.258C50.1642 15.3076 51.7365 16.8191 53.7766 16.8191C55.2319 16.832 56.5313 16.0762 57.155 15.0514Z" fill="white"/>
<path d="M73.4421 6.08449L73.2082 9.94023C72.6494 9.73527 71.9348 9.61998 71.337 9.61998C70.3885 9.61998 68.8812 10.3758 68.1665 11.7848V20.4699H63.9824V6.12292H68.1665V7.81381C68.8812 6.58407 70.4534 5.82829 71.6619 5.82829C72.4025 5.81548 73.0003 5.90515 73.4421 6.08449Z" fill="white"/>
<path d="M88.1252 14.2701H77.6521C78.0419 16.23 79.4063 17.2547 81.3943 17.2547C82.6937 17.2547 84.0581 16.6655 84.5649 15.7944L87.8264 17.7543C86.7609 19.6502 84.331 20.7646 81.3034 20.7646C77.0284 20.7646 73.6499 17.4853 73.6499 13.2197C73.6499 9.04368 76.9764 5.82843 81.2124 5.82843C85.1496 5.82843 88.2422 8.83873 88.2422 12.6689C88.2422 13.1556 88.2162 13.7064 88.1252 14.2701ZM84.0581 11.6313C83.8762 10.1966 82.5508 9.14616 81.0045 9.14616C79.2503 9.14616 78.0939 10.0813 77.717 11.6313H84.0581Z" fill="white"/>
<path d="M112.204 11.5415V20.4571H107.994V12.387C107.994 10.6576 107.019 9.60724 105.473 9.60724C104.433 9.60724 103.368 10.2477 102.861 11.1316V20.4571H98.6771V12.387C98.6771 10.6576 97.6376 9.60724 96.2473 9.60724C95.0258 9.60724 94.0253 10.2734 93.5835 11.2213V20.4571H89.3994V6.11018H93.5835V7.74983C94.2592 6.81471 95.6625 5.81555 97.7286 5.81555C99.5607 5.81555 100.899 6.4048 101.796 7.82668C102.679 6.8019 104.317 5.81555 106.24 5.81555C109.709 5.81555 112.204 8.09569 112.204 11.5415Z" fill="white"/>
<path d="M114.569 18.1258C114.569 16.6655 115.751 15.5255 117.271 15.5255C118.818 15.5255 120 16.6655 120 18.1258C120 19.5862 118.818 20.7518 117.271 20.7518C115.751 20.7518 114.569 19.5862 114.569 18.1258Z" fill="white"/>
</svg>

